<?xml version="1.0" encoding="UTF-8"?>
<svg width="16px" height="16px" viewBox="0 0 16 16" version="1.1" xmlns="http://www.w3.org/2000/svg" xmlns:xlink="http://www.w3.org/1999/xlink">
    <!-- Generator: Sketch 54.1 (76490) - https://sketchapp.com -->
    <title>图标/交换公司抬头复制</title>
    <desc>Created with Sketch.</desc>
    <g id="app页面" stroke="none" stroke-width="1" fill="none" fill-rule="evenodd">
        <g id="icon切图" transform="translate(-417.000000, -297.000000)" fill="currentColor">
            <g id="图标/交换公司抬头复制_export复制" transform="translate(417.000000, 297.000000)">
                <g id="图标/垃圾桶灰">
                    <g id="Page-1">
                        <path d="M13.0177231,15.7373283 L2.86387692,15.7373283 C2.35403077,15.7373283 1.9408,15.3318943 1.9408,14.8316679 L1.9408,4.06668679 C1.9408,3.56646038 2.35403077,3.16102642 2.86387692,3.16102642 C3.37372308,3.16102642 3.78695385,3.56646038 3.78695385,4.06668679 L3.78695385,13.9260075 L12.0946462,13.9260075 L12.0946462,3.86291321 C12.0946462,3.36268679 12.5078769,2.95725283 13.0177231,2.95725283 C13.5275692,2.95725283 13.9408,3.36268679 13.9408,3.86291321 L13.9408,14.8316679 C13.9408,15.3318943 13.5275692,15.7373283 13.0177231,15.7373283" id="Fill-1"></path>
                        <path d="M9.47926154,1.81132075 L6.40233846,1.81132075 C5.89249231,1.81132075 5.47926154,1.40588679 5.47926154,0.905660377 C5.47926154,0.405433962 5.89249231,0 6.40233846,0 L9.47926154,0 C9.98910769,0 10.4023385,0.405433962 10.4023385,0.905660377 C10.4023385,1.40588679 9.98910769,1.81132075 9.47926154,1.81132075" id="Fill-3"></path>
                        <path d="M14.9582462,4.76857358 L0.923169231,4.76857358 C0.413323077,4.76857358 9.23076923e-05,4.36313962 9.23076923e-05,3.86291321 C9.23076923e-05,3.36268679 0.413323077,2.95725283 0.923169231,2.95725283 L14.9582462,2.95725283 C15.4680923,2.95725283 15.8813231,3.36268679 15.8813231,3.86291321 C15.8813231,4.36313962 15.4680923,4.76857358 14.9582462,4.76857358" id="Fill-5"></path>
                        <path d="M6.2548,11.7199396 C5.74495385,11.7199396 5.33172308,11.3145057 5.33172308,10.8142792 L5.33172308,7.55843019 C5.33172308,7.05820377 5.74495385,6.65276981 6.2548,6.65276981 C6.76464615,6.65276981 7.17787692,7.05820377 7.17787692,7.55843019 L7.17787692,10.8142792 C7.17787692,11.3145057 6.76464615,11.7199396 6.2548,11.7199396" id="Fill-8"></path>
                        <path d="M9.62649231,11.7199396 C9.11664615,11.7199396 8.70341538,11.3145057 8.70341538,10.8142792 L8.70341538,7.55843019 C8.70341538,7.05820377 9.11664615,6.65276981 9.62649231,6.65276981 C10.1363385,6.65276981 10.5495692,7.05820377 10.5495692,7.55843019 L10.5495692,10.8142792 C10.5495692,11.3145057 10.1363385,11.7199396 9.62649231,11.7199396" id="Fill-10"></path>
                    </g>
                </g>
            </g>
        </g>
    </g>
</svg>