<?xml version="1.0" encoding="UTF-8"?>
<svg width="24px" height="24px" viewBox="0 0 24 24" version="1.1" xmlns="http://www.w3.org/2000/svg" xmlns:xlink="http://www.w3.org/1999/xlink">
    <!-- Generator: Sketch 54.1 (76490) - https://sketchapp.com -->
    <title>图标/分享复制 2</title>
    <desc>Created with Sketch.</desc>
    <defs>
        <polygon id="path-1" points="0.000195652174 0.362943396 17.9596957 0.362943396 17.9596957 20.6037736 0.000195652174 20.6037736"></polygon>
    </defs>
    <g id="app页面" stroke="none" stroke-width="1" fill="none" fill-rule="evenodd">
        <g id="icon切图" transform="translate(-463.000000, -73.000000)">
            <g id="图标/分享复制-2_export复制复制" transform="translate(463.000000, 73.000000)">
                <g id="图标/协议">
                    <rect id="矩形" fill="#D8D8D8" opacity="0" x="0" y="0" width="24" height="24"></rect>
                    <g id="编组" stroke-width="1" transform="translate(3.000000, 2.000000)">
                        <g transform="translate(0.000000, 0.033283)">
                            <mask id="mask-2" fill="white">
                                <use xlink:href="#path-1"></use>
                            </mask>
                            <g id="Clip-2"></g>
                            <path d="M16.7859783,20.6037736 C16.137587,20.6037736 15.6120652,20.0716415 15.6120652,19.4150943 L15.6120652,5.69020755 L11.9568913,2.74030189 L2.34802174,2.74030189 L2.34802174,19.4150943 C2.34802174,20.0716415 1.8225,20.6037736 1.1741087,20.6037736 C0.525326087,20.6037736 0.000195652174,20.0716415 0.000195652174,19.4150943 L0.000195652174,1.55162264 C0.000195652174,0.895075472 0.525326087,0.362943396 1.1741087,0.362943396 L12.3677609,0.362943396 C12.6338478,0.362943396 12.8917174,0.454075472 13.0995,0.622075472 L17.5177174,4.18811321 C17.7971087,4.41396226 17.9598913,4.75590566 17.9598913,5.11766038 L17.9598913,19.4150943 C17.9598913,20.0716415 17.4343696,20.6037736 16.7859783,20.6037736" id="Fill-1" fill="#3F3A3A" mask="url(#mask-2)"></path>
                        </g>
                        <path d="M8.49635217,12.666883 L5.65391739,12.666883 C5.00552609,12.666883 4.48000435,12.1347509 4.48000435,11.4782038 C4.48000435,10.8216566 5.00552609,10.2895245 5.65391739,10.2895245 L8.49635217,10.2895245 C9.14474348,10.2895245 9.67026522,10.8216566 9.67026522,11.4782038 C9.67026522,12.1347509 9.14474348,12.666883 8.49635217,12.666883" id="Fill-3" fill="#3F3A3A"></path>
                        <path d="M11.5236,7.91216604 L5.65403478,7.91216604 C5.00564348,7.91216604 4.48012174,7.38003396 4.48012174,6.72348679 C4.48012174,6.06693962 5.00564348,5.53480755 5.65403478,5.53480755 L11.5236,5.53480755 C12.1719913,5.53480755 12.697513,6.06693962 12.697513,6.72348679 C12.697513,7.38003396 12.1719913,7.91216604 11.5236,7.91216604" id="Fill-5" fill="#3F3A3A"></path>
                    </g>
                </g>
            </g>
        </g>
    </g>
</svg>