<?xml version="1.0" standalone="no"?><!DOCTYPE svg PUBLIC "-//W3C//DTD SVG 1.1//EN" "http://www.w3.org/Graphics/SVG/1.1/DTD/svg11.dtd"><svg t="1561376918889" class="icon" viewBox="0 0 1024 1024" version="1.1" xmlns="http://www.w3.org/2000/svg" p-id="2447" width="128" height="128" xmlns:xlink="http://www.w3.org/1999/xlink"><defs><style type="text/css">@font-face { font-weight: 400; font-style: normal; font-family: Inter-Loom; src: url("https://cdn.loom.com/assets/fonts/inter/Inter-UI-Regular.woff2") format("woff2"); }
@font-face { font-weight: 400; font-style: italic; font-family: Inter-Loom; src: url("https://cdn.loom.com/assets/fonts/inter/Inter-UI-Italic.woff2") format("woff2"); }
@font-face { font-weight: 500; font-style: normal; font-family: Inter-Loom; src: url("https://cdn.loom.com/assets/fonts/inter/Inter-UI-Medium.woff2") format("woff2"); }
@font-face { font-weight: 500; font-style: italic; font-family: Inter-Loom; src: url("https://cdn.loom.com/assets/fonts/inter/Inter-UI-MediumItalic.woff2") format("woff2"); }
@font-face { font-weight: 700; font-style: normal; font-family: Inter-Loom; src: url("https://cdn.loom.com/assets/fonts/inter/Inter-UI-Bold.woff2") format("woff2"); }
@font-face { font-weight: 700; font-style: italic; font-family: Inter-Loom; src: url("https://cdn.loom.com/assets/fonts/inter/Inter-UI-BoldItalic.woff2") format("woff2"); }
@font-face { font-weight: 900; font-style: normal; font-family: Inter-Loom; src: url("https://cdn.loom.com/assets/fonts/inter/Inter-UI-Black.woff2") format("woff2"); }
@font-face { font-weight: 900; font-style: italic; font-family: Inter-Loom; src: url("https://cdn.loom.com/assets/fonts/inter/Inter-UI-BlackItalic.woff2") format("woff2"); }
</style></defs><path d="M347.6 699c1.6 0 3.2-0.2 4.8-0.4L486.9 675c1.6-0.3 3.1-1 4.2-2.2l339.1-339.1c3.1-3.1 3.1-8.2 0-11.3l-133-133c-1.5-1.5-3.5-2.3-5.7-2.3s-4.2 0.8-5.7 2.3l-339 339c-1.2 1.2-1.9 2.6-2.2 4.2L321 667.2c-1.5 8.9 1.2 17.5 7.5 23.8 5.3 5.2 11.9 8 19.1 8z m53.9-139.5l290.2-290.1 58.6 58.6-290.2 290.1-71.1 12.6 12.5-71.2zM739 827H284c-19.9 0-36-16.1-36-36s16.1-36 36-36h455c19.9 0 36 16.1 36 36s-16.1 36-36 36z" p-id="2448" fill="#000000"></path></svg>