<?xml version="1.0" encoding="UTF-8"?>
<svg width="14px" height="14px" viewBox="0 0 14 14" version="1.1" xmlns="http://www.w3.org/2000/svg" xmlns:xlink="http://www.w3.org/1999/xlink">
    <!-- Generator: Sketch 54.1 (76490) - https://sketchapp.com -->
    <title>图标/交换公司抬头复制 3</title>
    <desc>Created with Sketch.</desc>
    <g id="app页面" stroke="none" stroke-width="1" fill="none" fill-rule="evenodd">
        <g id="icon切图" transform="translate(-353.000000, -299.000000)">
            <g id="图标/交换公司抬头复制-3_export" transform="translate(353.000000, 299.000000)">
                <g id="图标/刷新">
                    <rect id="矩形" fill="currentColor" opacity="0" x="0" y="0" width="12" height="12"></rect>
                    <g id="Page-1" stroke-width="1" transform="translate(0.000000, 1.000000)" fill="currentColor">
                        <path d="M11.2674457,4.33333333 L9.3158876,4.33333333 C8.95730124,4.33333333 8.66666667,4.04269876 8.66666667,3.6841124 C8.66666667,3.32552604 8.95730124,3.03489146 9.3158876,3.03489146 L10.6182248,3.03489146 L10.6182248,1.73255427 C10.6182248,1.37396791 10.9088594,1.08333333 11.2674457,1.08333333 C11.6260321,1.08333333 11.9166667,1.37396791 11.9166667,1.73255427 L11.9166667,3.6841124 C11.9166667,4.04269876 11.6260321,4.33333333 11.2674457,4.33333333" id="Fill-1"></path>
                        <path d="M6.498486,13 C4.83355579,13 3.16862559,12.3661272 1.90117535,11.0983817 C-0.633725118,8.56289067 -0.633725118,4.43686007 1.90117535,1.90161828 C4.43607582,-0.633872761 8.56064697,-0.633872761 11.0955474,1.90161828 C11.3876142,2.19350385 11.3876142,2.66710128 11.0955474,2.95898685 C10.8034807,3.25112168 10.3304919,3.25112168 10.0384252,2.95898685 C8.08641225,1.00701768 4.91031055,1.00726694 2.95829763,2.95898685 C1.00653392,4.91145454 1.00653392,8.08854546 2.95829763,10.0410132 C4.91031055,11.9937301 8.08641225,11.9932316 10.0384252,10.0410132 C11.0354893,9.04346742 11.5677885,7.6628063 11.4987591,6.25273229 C11.4785736,5.84020401 11.7965576,5.48949266 12.2089898,5.46930245 C12.6283997,5.44387775 12.9720516,5.7671703 12.9922371,6.17969858 C13.0819505,8.01027726 12.3906593,9.80321739 11.0955474,11.0983817 C9.8280972,12.3661272 8.1634162,13 6.498486,13" id="Fill-3"></path>
                    </g>
                </g>
            </g>
        </g>
    </g>
</svg>