<?xml version="1.0" encoding="UTF-8"?>
<svg width="24px" height="24px" viewBox="0 0 24 24" version="1.1" xmlns="http://www.w3.org/2000/svg" xmlns:xlink="http://www.w3.org/1999/xlink">
    <!-- Generator: Sketch 54.1 (76490) - https://sketchapp.com -->
    <title>图标/分享复制 4</title>
    <desc>Created with Sketch.</desc>
    <g id="页面1" stroke="none" stroke-width="1" fill="none" fill-rule="evenodd">
        <g id="icon切图" transform="translate(-343.000000, -33.000000)">
            <g id="图标/分享复制-4_export" transform="translate(343.000000, 33.000000)">
                <g id="图标/搜索（大）">
                    <g id="Group-7" stroke-width="1" transform="translate(2.000000, 2.000000)" fill="currentColor">
                        <path d="M19.6344519,18.1541365 L16.5541466,15.0202904 C16.0619328,15.6571558 15.4978718,16.2338481 14.8738718,16.7370404 L17.9506046,19.8672519 C18.1832153,20.1039058 18.4876733,20.2222327 18.7925282,20.2222327 C19.0969863,20.2222327 19.4018412,20.1039058 19.6344519,19.8672519 C20.0996733,19.3943481 20.0996733,18.6270404 19.6344519,18.1541365" id="Fill-12"></path>
                        <path d="M8.60175878,2.42307692 C5.21381985,2.42307692 2.4574229,5.22738462 2.4574229,8.67421154 C2.4574229,12.1214423 5.21381985,14.9253462 8.60175878,14.9253462 C11.9896977,14.9253462 14.7460947,12.1214423 14.7460947,8.67421154 C14.7460947,5.22738462 11.9896977,2.42307692 8.60175878,2.42307692 M8.60175878,17.3484231 C3.90032366,17.3484231 0.0757435115,13.4573654 0.0757435115,8.67421154 C0.0757435115,3.89146154 3.90032366,-7.10542736e-15 8.60175878,-7.10542736e-15 C13.3031939,-7.10542736e-15 17.127774,3.89146154 17.127774,8.67421154 C17.127774,13.4573654 13.3031939,17.3484231 8.60175878,17.3484231" id="Fill-15"></path>
                    </g>
                    <rect id="矩形" fill="#D8D8D8" opacity="0" x="0" y="0" width="24" height="24"></rect>
                </g>
            </g>
        </g>
    </g>
</svg>