<?xml version="1.0" encoding="UTF-8"?>
<svg width="24px" height="24px" viewBox="0 0 24 24" version="1.1" xmlns="http://www.w3.org/2000/svg" xmlns:xlink="http://www.w3.org/1999/xlink">
    <!-- Generator: Sketch 54.1 (76490) - https://sketchapp.com -->
    <title>图标/分享复制 3</title>
    <desc>Created with Sketch.</desc>
    <defs>
        <polygon id="path-1" points="0 0.00282692308 21.8296 0.00282692308 21.8296 12.8453769 0 12.8453769"></polygon>
    </defs>
    <g id="app页面" stroke="none" stroke-width="1" fill="none" fill-rule="evenodd">
        <g id="icon切图" transform="translate(-300.000000, -33.000000)">
            <g id="图标/分享复制-3_export" transform="translate(300.000000, 33.000000)">
                <g id="图标/商店">
                    <g id="Page-1" stroke-width="1" transform="translate(1.000000, 1.000000)">
                        <path d="M18.46524,20.9972538 C17.80244,20.9972538 17.26524,20.4548885 17.26524,19.7857154 L17.26524,12.7870615 C17.26524,12.1178885 17.80244,11.5755231 18.46524,11.5755231 C19.12804,11.5755231 19.66524,12.1178885 19.66524,12.7870615 L19.66524,19.7857154 C19.66524,20.4548885 19.12804,20.9972538 18.46524,20.9972538" id="Fill-1" fill="currentColor"></path>
                        <path d="M3.36484,20.9972538 C2.70204,20.9972538 2.16484,20.4548885 2.16484,19.7857154 L2.16484,12.9171 C2.16484,12.2479269 2.70204,11.7055615 3.36484,11.7055615 C4.02764,11.7055615 4.56484,12.2479269 4.56484,12.9171 L4.56484,19.7857154 C4.56484,20.4548885 4.02764,20.9972538 3.36484,20.9972538" id="Fill-3" fill="currentColor"></path>
                        <g id="Group-7" transform="translate(0.000000, 0.401100)">
                            <mask id="mask-2" fill="white">
                                <use xlink:href="#path-1"></use>
                            </mask>
                            <g id="Clip-6"></g>
                            <path d="M2.4,10.4223 L19.4296,10.4223 L19.4296,7.54812692 L17.0092,2.42574231 L4.8204,2.42574231 L2.4,7.54812692 L2.4,10.4223 Z M20.6296,12.8453769 L1.2,12.8453769 C0.5372,12.8453769 0,12.3030115 0,11.6338385 L0,7.27391538 C0,7.09339615 0.04,6.91489615 0.1168,6.75214615 L2.98,0.692434615 C3.1792,0.271223077 3.6008,0.00266538462 4.0632,0.00266538462 L17.7664,0.00266538462 C18.2288,0.00266538462 18.6504,0.271223077 18.8496,0.692434615 L21.7128,6.75214615 C21.79,6.91489615 21.8296,7.09339615 21.8296,7.27391538 L21.8296,11.6338385 C21.8296,12.3030115 21.2924,12.8453769 20.6296,12.8453769 L20.6296,12.8453769 Z" id="Fill-5" fill="currentColor" mask="url(#mask-2)"></path>
                        </g>
                        <path d="M10.91484,16.05765 L10.91484,19.7169" id="Fill-8" fill="currentColor"></path>
                        <path d="M10.91484,20.9282365 C10.25204,20.9282365 9.71484,20.3858712 9.71484,19.7166981 L9.71484,16.0574481 C9.71484,15.388275 10.25204,14.8459096 10.91484,14.8459096 C11.57764,14.8459096 12.11484,15.388275 12.11484,16.0574481 L12.11484,19.7166981 C12.11484,20.3858712 11.57764,20.9282365 10.91484,20.9282365" id="Fill-10" fill="currentColor"></path>
                        <path d="M5.76212,9.07434231 L5.76212,11.9259" id="Fill-12" fill="currentColor"></path>
                        <path d="M5.76212,13.1372365 C5.09932,13.1372365 4.56212,12.5948712 4.56212,11.9256981 L4.56212,9.07414038 C4.56212,8.40496731 5.09932,7.86260192 5.76212,7.86260192 C6.42492,7.86260192 6.96212,8.40496731 6.96212,9.07414038 L6.96212,11.9256981 C6.96212,12.5948712 6.42492,13.1372365 5.76212,13.1372365" id="Fill-14" fill="currentColor"></path>
                        <path d="M10.76212,9.07434231 L10.76212,11.9259" id="Fill-16" fill="currentColor"></path>
                        <path d="M10.76212,13.1372365 C10.09932,13.1372365 9.56212,12.5948712 9.56212,11.9256981 L9.56212,9.07414038 C9.56212,8.40496731 10.09932,7.86260192 10.76212,7.86260192 C11.42492,7.86260192 11.96212,8.40496731 11.96212,9.07414038 L11.96212,11.9256981 C11.96212,12.5948712 11.42492,13.1372365 10.76212,13.1372365" id="Fill-18" fill="currentColor"></path>
                        <path d="M15.76212,9.07434231 L15.76212,11.9259" id="Fill-20" fill="currentColor"></path>
                        <path d="M15.76212,13.1372365 C15.09932,13.1372365 14.56212,12.5948712 14.56212,11.9256981 L14.56212,9.07414038 C14.56212,8.40496731 15.09932,7.86260192 15.76212,7.86260192 C16.42492,7.86260192 16.96212,8.40496731 16.96212,9.07414038 L16.96212,11.9256981 C16.96212,12.5948712 16.42492,13.1372365 15.76212,13.1372365" id="Fill-22" fill="currentColor"></path>
                    </g>
                    <rect id="矩形复制" fill="#D8D8D8" opacity="0" x="0" y="0" width="24" height="24"></rect>
                </g>
            </g>
        </g>
    </g>
</svg>