<?xml version="1.0" encoding="UTF-8"?>
<svg width="24px" height="24px" viewBox="0 0 24 24" version="1.1" xmlns="http://www.w3.org/2000/svg" xmlns:xlink="http://www.w3.org/1999/xlink">
    <!-- Generator: Sketch 54.1 (76490) - https://sketchapp.com -->
    <title>图标/分享复制 2</title>
    <desc>Created with Sketch.</desc>
    <defs>
        <polygon id="path-1" points="0 0 23.999222 0 23.999222 24 0 24"></polygon>
    </defs>
    <g id="app页面" stroke="none" stroke-width="1" fill="none" fill-rule="evenodd">
        <g id="icon切图" transform="translate(-581.000000, -73.000000)">
            <g id="图标/分享复制-2_export复制复制复制复制复制" transform="translate(581.000000, 73.000000)">
                <g id="编组">
                    <mask id="mask-2" fill="white">
                        <use xlink:href="#path-1"></use>
                    </mask>
                    <g id="Clip-2"></g>
                    <path d="M6.80642436,3.4524035 C6.63459967,3.16466533 6.33117909,3 5.97457467,3 C5.73388374,3 5.49421557,3.08148036 5.28216208,3.244782 L3.30310984,5.224857 C3.09992033,5.42838744 2.99798465,5.72567143 3.00003018,6.10852684 C3.00718954,7.76472594 5.18670392,11.6130535 8.82059157,15.1852343 C12.1923102,18.5003599 16.105413,21 17.9232091,21 C18.2914049,21 18.5788021,20.899428 18.7768778,20.7013523 L20.6809272,18.796962 C20.8834349,18.6040002 20.9993483,18.3333081 20.9993483,18.0544339 C20.9993483,17.8069245 20.8946853,17.5147543 20.7487707,17.3828175 C19.5306563,16.2853896 17.8222962,14.9527255 17.8222962,14.9527255 C17.6303571,14.8095382 17.412167,14.7338536 17.1919314,14.7338536 C16.9219212,14.7338536 16.6679343,14.8449941 16.4565626,15.055343 L14.8327511,16.6791545 C14.7550209,16.7548392 14.6530852,16.7964317 14.544672,16.7964317 C14.4846698,16.7964317 14.4250084,16.7838176 14.3851205,16.7650669 C12.8826773,15.947195 11.5050114,14.9203379 10.2920109,13.7124512 C9.08412428,12.4987689 8.05794904,11.1241714 7.24621375,9.63366037 C7.17223368,9.4792227 7.2035985,9.29239744 7.32530766,9.16761999 L8.8396832,7.57892344 C9.33674748,7.1118603 9.32140599,6.63797871 8.97980214,6.1808023 L8.67297234,5.77135498" id="Fill-1" fill="#333333" mask="url(#mask-2)"></path>
                </g>
            </g>
        </g>
    </g>
</svg>