<?xml version="1.0" encoding="UTF-8"?>
<svg width="24px" height="24px" viewBox="0 0 24 24" version="1.1" xmlns="http://www.w3.org/2000/svg" xmlns:xlink="http://www.w3.org/1999/xlink">
    <!-- Generator: Sketch 54.1 (76490) - https://sketchapp.com -->
    <title>图标/分享复制 2</title>
    <desc>Created with Sketch.</desc>
    <g id="app页面" stroke="none" stroke-width="1" fill="none" fill-rule="evenodd">
        <g id="icon切图" transform="translate(-500.000000, -73.000000)">
            <g id="图标/分享复制-2_export复制复制复制" transform="translate(500.000000, 73.000000)">
                <g id="图标/微信">
                    <rect id="矩形" fill="#D8D8D8" opacity="0" x="0" y="0" width="24" height="24"></rect>
                    <g id="Page-1" stroke-width="1" transform="translate(0.000000, 2.000000)" fill="#333333">
                        <path d="M18.8468766,11.3946337 C18.3302709,11.3946337 17.9115249,10.9758413 17.9115249,10.4592819 C17.9115249,9.94267618 18.3302709,9.52390697 18.8468766,9.52390697 C19.3634824,9.52390697 19.7822284,9.94267618 19.7822284,10.4592819 C19.7822284,10.9758413 19.3634824,11.3946337 18.8468766,11.3946337 M14.2763761,11.3946337 C13.7597703,11.3946337 13.3410243,10.9758413 13.3410243,10.4592819 C13.3410243,9.94267618 13.7597703,9.52390697 14.2763761,9.52390697 C14.7929818,9.52390697 15.2117279,9.94267618 15.2117279,10.4592819 C15.2117279,10.9758413 14.7929818,11.3946337 14.2763761,11.3946337 M23.5310133,12.2082524 C23.5310133,8.907191 20.198492,6.21702221 16.4556,6.21702221 C12.492048,6.21702221 9.3727394,8.90862943 9.3727394,12.2082524 C9.3727394,15.5180372 12.4935561,18.1994362 16.4556,18.1994362 C17.2850183,18.1994362 18.1218839,17.9937869 18.954295,17.7868151 L21.238246,19.0290401 L20.6117395,16.9644731 C22.2839162,15.7192321 23.5310133,14.0702094 23.5310133,12.2082524" id="Fill-1"></path>
                        <path d="M11.3544156,5.64351256 C10.7602274,5.64351256 10.2785384,5.16182356 10.2785384,4.56763529 C10.2785384,3.97344702 10.7602274,3.49175802 11.3544156,3.49175802 C11.9486039,3.49175802 12.4302929,3.97344702 12.4302929,4.56763529 C12.4302929,5.16182356 11.9486039,5.64351256 11.3544156,5.64351256 M5.55428803,5.64351256 C4.96009976,5.64351256 4.47841077,5.16182356 4.47841077,4.56763529 C4.47841077,3.97344702 4.96009976,3.49175802 5.55428803,3.49175802 C6.14847631,3.49175802 6.6301653,3.97344702 6.6301653,4.56763529 C6.6301653,5.16182356 6.14847631,5.64351256 5.55428803,5.64351256 M8.32851227,0.0231889102 C3.75023955,0.0231889102 -6.96015312e-06,3.11574735 -6.96015312e-06,7.045241 C-6.96015312e-06,9.31258048 1.24711328,11.1744678 3.33263036,12.6208805 L2.50021924,15.1040079 L5.41216171,13.6575953 C6.45335421,13.8602053 7.28875819,14.0702163 8.32851227,14.0702163 C8.59035323,14.0702163 8.84917812,14.0585001 9.10501015,14.0395917 C8.94325619,13.4869091 8.84762369,12.9095644 8.84762369,12.3073952 C8.84917812,8.7001102 11.972918,5.77229859 15.9276306,5.77229859 C16.1982414,5.77229859 16.4643745,5.79280784 16.7321083,5.82185488 C16.0114309,2.49457688 12.4244232,0.0231889102 8.32851227,0.0231889102" id="Fill-4"></path>
                    </g>
                </g>
            </g>
        </g>
    </g>
</svg>