<?xml version="1.0" standalone="no"?><!DOCTYPE svg PUBLIC "-//W3C//DTD SVG 1.1//EN" "http://www.w3.org/Graphics/SVG/1.1/DTD/svg11.dtd"><svg t="1561540886327" class="icon" viewBox="0 0 1024 1024" version="1.1" xmlns="http://www.w3.org/2000/svg" p-id="2561" width="128" height="128" xmlns:xlink="http://www.w3.org/1999/xlink"><defs><style type="text/css">@font-face { font-weight: 400; font-style: normal; font-family: Inter-Loom; src: url("https://cdn.loom.com/assets/fonts/inter/Inter-UI-Regular.woff2") format("woff2"); }
@font-face { font-weight: 400; font-style: italic; font-family: Inter-Loom; src: url("https://cdn.loom.com/assets/fonts/inter/Inter-UI-Italic.woff2") format("woff2"); }
@font-face { font-weight: 500; font-style: normal; font-family: Inter-Loom; src: url("https://cdn.loom.com/assets/fonts/inter/Inter-UI-Medium.woff2") format("woff2"); }
@font-face { font-weight: 500; font-style: italic; font-family: Inter-Loom; src: url("https://cdn.loom.com/assets/fonts/inter/Inter-UI-MediumItalic.woff2") format("woff2"); }
@font-face { font-weight: 700; font-style: normal; font-family: Inter-Loom; src: url("https://cdn.loom.com/assets/fonts/inter/Inter-UI-Bold.woff2") format("woff2"); }
@font-face { font-weight: 700; font-style: italic; font-family: Inter-Loom; src: url("https://cdn.loom.com/assets/fonts/inter/Inter-UI-BoldItalic.woff2") format("woff2"); }
@font-face { font-weight: 900; font-style: normal; font-family: Inter-Loom; src: url("https://cdn.loom.com/assets/fonts/inter/Inter-UI-Black.woff2") format("woff2"); }
@font-face { font-weight: 900; font-style: italic; font-family: Inter-Loom; src: url("https://cdn.loom.com/assets/fonts/inter/Inter-UI-BlackItalic.woff2") format("woff2"); }
</style></defs><path d="M875.064946 426.866041c-3.981684-12.286838-14.617929-21.245883-27.375487-23.079648l-210.385615-30.571273L543.205723 182.555779c-5.711072-11.57871-17.499559-18.913768-30.413684-18.913768-12.915148 0-24.703635 7.335059-30.414707 18.913768l-94.098121 190.659341-210.411197 30.571273c-12.784164 1.860371-23.393803 10.79281-27.375487 23.079648-3.981684 12.285814-0.654916 25.750477 8.592702 34.762735l152.255683 148.403958L275.397281 819.579237c-2.173502 12.731976 3.039219 25.593911 13.491269 33.190937 10.453073 7.597025 24.285103 8.592702 35.732829 2.567475l188.196243-98.9445 188.17066 98.9445c4.950755 2.593058 10.374278 3.90289 15.770172 3.90289 7.020904 0 14.041808-2.174526 19.936051-6.470365 10.45205-7.597025 15.665795-20.458961 13.491269-33.190937l-35.941584-209.546503L866.49885 461.628776C875.719862 452.616518 879.04663 439.151855 875.064946 426.866041L875.064946 426.866041z" p-id="2562" fill="currentColor"></path></svg>